<mxfile host="app.diagrams.net" modified="2023-09-07T00:10:55.424Z" agent="Mozilla/5.0 (X11; Linux x86_64; rv:109.0) Gecko/20100101 Firefox/115.0" etag="Ij04DE2r-AsJU4vwE0HO" version="21.7.2" type="device">
  <diagram name="Page-1" id="siBint247S-fZsv1e7LS">
    <mxGraphModel dx="1908" dy="1204" grid="1" gridSize="10" guides="1" tooltips="1" connect="1" arrows="1" fold="1" page="1" pageScale="1" pageWidth="850" pageHeight="1100" math="0" shadow="0">
      <root>
        <mxCell id="0" />
        <mxCell id="1" parent="0" />
        <mxCell id="Bl0_iOmTNJDqRzb96vht-2" value="FIM" style="strokeWidth=2;html=1;shape=mxgraph.flowchart.terminator;whiteSpace=wrap;" vertex="1" parent="1">
          <mxGeometry x="205" y="640" width="100" height="60" as="geometry" />
        </mxCell>
        <mxCell id="Bl0_iOmTNJDqRzb96vht-5" value="" style="edgeStyle=orthogonalEdgeStyle;rounded=0;orthogonalLoop=1;jettySize=auto;html=1;" edge="1" parent="1" source="Bl0_iOmTNJDqRzb96vht-3">
          <mxGeometry relative="1" as="geometry">
            <mxPoint x="145" y="515" as="targetPoint" />
          </mxGeometry>
        </mxCell>
        <mxCell id="Bl0_iOmTNJDqRzb96vht-3" value="INICIO" style="strokeWidth=2;html=1;shape=mxgraph.flowchart.terminator;whiteSpace=wrap;" vertex="1" parent="1">
          <mxGeometry x="95" y="395" width="100" height="60" as="geometry" />
        </mxCell>
        <mxCell id="Bl0_iOmTNJDqRzb96vht-9" style="edgeStyle=orthogonalEdgeStyle;rounded=0;orthogonalLoop=1;jettySize=auto;html=1;entryX=0;entryY=0.5;entryDx=0;entryDy=0;" edge="1" parent="1" source="Bl0_iOmTNJDqRzb96vht-6" target="Bl0_iOmTNJDqRzb96vht-8">
          <mxGeometry relative="1" as="geometry" />
        </mxCell>
        <mxCell id="Bl0_iOmTNJDqRzb96vht-6" value="DECLARE base_menor, base_maior, altura, area" style="rounded=0;whiteSpace=wrap;html=1;" vertex="1" parent="1">
          <mxGeometry x="85" y="515" width="120" height="80" as="geometry" />
        </mxCell>
        <mxCell id="Bl0_iOmTNJDqRzb96vht-15" value="" style="edgeStyle=orthogonalEdgeStyle;rounded=0;orthogonalLoop=1;jettySize=auto;html=1;" edge="1" parent="1" source="Bl0_iOmTNJDqRzb96vht-7" target="Bl0_iOmTNJDqRzb96vht-12">
          <mxGeometry relative="1" as="geometry" />
        </mxCell>
        <mxCell id="Bl0_iOmTNJDqRzb96vht-7" value="&quot;Informe a base maior&quot;" style="shape=document;whiteSpace=wrap;html=1;boundedLbl=1;" vertex="1" parent="1">
          <mxGeometry x="405" y="395" width="120" height="80" as="geometry" />
        </mxCell>
        <mxCell id="Bl0_iOmTNJDqRzb96vht-14" value="" style="edgeStyle=orthogonalEdgeStyle;rounded=0;orthogonalLoop=1;jettySize=auto;html=1;" edge="1" parent="1" source="Bl0_iOmTNJDqRzb96vht-8" target="Bl0_iOmTNJDqRzb96vht-13">
          <mxGeometry relative="1" as="geometry" />
        </mxCell>
        <mxCell id="Bl0_iOmTNJDqRzb96vht-8" value="&quot;Informe a base menor&quot;" style="shape=document;whiteSpace=wrap;html=1;boundedLbl=1;" vertex="1" parent="1">
          <mxGeometry x="245" y="395" width="120" height="80" as="geometry" />
        </mxCell>
        <mxCell id="Bl0_iOmTNJDqRzb96vht-16" value="" style="edgeStyle=orthogonalEdgeStyle;rounded=0;orthogonalLoop=1;jettySize=auto;html=1;" edge="1" parent="1" source="Bl0_iOmTNJDqRzb96vht-10" target="Bl0_iOmTNJDqRzb96vht-11">
          <mxGeometry relative="1" as="geometry" />
        </mxCell>
        <mxCell id="Bl0_iOmTNJDqRzb96vht-10" value="&quot;Informe a altura&quot;" style="shape=document;whiteSpace=wrap;html=1;boundedLbl=1;" vertex="1" parent="1">
          <mxGeometry x="565" y="395" width="120" height="80" as="geometry" />
        </mxCell>
        <mxCell id="Bl0_iOmTNJDqRzb96vht-20" value="" style="edgeStyle=orthogonalEdgeStyle;rounded=0;orthogonalLoop=1;jettySize=auto;html=1;" edge="1" parent="1" source="Bl0_iOmTNJDqRzb96vht-11" target="Bl0_iOmTNJDqRzb96vht-19">
          <mxGeometry relative="1" as="geometry" />
        </mxCell>
        <mxCell id="Bl0_iOmTNJDqRzb96vht-11" value="LEIA altura" style="shape=parallelogram;perimeter=parallelogramPerimeter;whiteSpace=wrap;html=1;fixedSize=1;" vertex="1" parent="1">
          <mxGeometry x="565" y="515" width="120" height="60" as="geometry" />
        </mxCell>
        <mxCell id="Bl0_iOmTNJDqRzb96vht-18" style="edgeStyle=orthogonalEdgeStyle;rounded=0;orthogonalLoop=1;jettySize=auto;html=1;entryX=0;entryY=0.5;entryDx=0;entryDy=0;" edge="1" parent="1" source="Bl0_iOmTNJDqRzb96vht-12" target="Bl0_iOmTNJDqRzb96vht-10">
          <mxGeometry relative="1" as="geometry" />
        </mxCell>
        <mxCell id="Bl0_iOmTNJDqRzb96vht-12" value="LEIA base_maior" style="shape=parallelogram;perimeter=parallelogramPerimeter;whiteSpace=wrap;html=1;fixedSize=1;" vertex="1" parent="1">
          <mxGeometry x="405" y="515" width="120" height="60" as="geometry" />
        </mxCell>
        <mxCell id="Bl0_iOmTNJDqRzb96vht-17" style="edgeStyle=orthogonalEdgeStyle;rounded=0;orthogonalLoop=1;jettySize=auto;html=1;entryX=0.008;entryY=0.4;entryDx=0;entryDy=0;entryPerimeter=0;" edge="1" parent="1" source="Bl0_iOmTNJDqRzb96vht-13" target="Bl0_iOmTNJDqRzb96vht-7">
          <mxGeometry relative="1" as="geometry" />
        </mxCell>
        <mxCell id="Bl0_iOmTNJDqRzb96vht-13" value="LEIA base_menor" style="shape=parallelogram;perimeter=parallelogramPerimeter;whiteSpace=wrap;html=1;fixedSize=1;" vertex="1" parent="1">
          <mxGeometry x="245" y="515" width="120" height="60" as="geometry" />
        </mxCell>
        <mxCell id="Bl0_iOmTNJDqRzb96vht-23" value="" style="edgeStyle=orthogonalEdgeStyle;rounded=0;orthogonalLoop=1;jettySize=auto;html=1;" edge="1" parent="1" source="Bl0_iOmTNJDqRzb96vht-19" target="Bl0_iOmTNJDqRzb96vht-21">
          <mxGeometry relative="1" as="geometry" />
        </mxCell>
        <mxCell id="Bl0_iOmTNJDqRzb96vht-19" value="area = (base_menor + base_maior) * altura / 2" style="rounded=0;whiteSpace=wrap;html=1;" vertex="1" parent="1">
          <mxGeometry x="485" y="630" width="280" height="70" as="geometry" />
        </mxCell>
        <mxCell id="Bl0_iOmTNJDqRzb96vht-22" value="" style="edgeStyle=orthogonalEdgeStyle;rounded=0;orthogonalLoop=1;jettySize=auto;html=1;" edge="1" parent="1" source="Bl0_iOmTNJDqRzb96vht-21">
          <mxGeometry relative="1" as="geometry">
            <mxPoint x="305" y="665" as="targetPoint" />
          </mxGeometry>
        </mxCell>
        <mxCell id="Bl0_iOmTNJDqRzb96vht-21" value="&quot;A area do trapézio é {area}&quot;" style="shape=document;whiteSpace=wrap;html=1;boundedLbl=1;" vertex="1" parent="1">
          <mxGeometry x="335" y="625" width="120" height="80" as="geometry" />
        </mxCell>
      </root>
    </mxGraphModel>
  </diagram>
</mxfile>
